<?xml version="1.0" encoding="iso-8859-1"?>
<!-- Generator: Adobe Illustrator 19.0.0, SVG Export Plug-In . SVG Version: 6.00 Build 0)  -->
<svg version="1.1" id="Capa_1" xmlns="http://www.w3.org/2000/svg" xmlns:xlink="http://www.w3.org/1999/xlink" x="0px" y="0px"
	 viewBox="0 0 512 512" style="enable-background:new 0 0 512 512;" xml:space="preserve">
<polygon style="fill:#9C969E;" points="226.065,265.29 176.516,314.839 198.194,334.452 245.677,286.968 "/>
<path style="fill:#867E88;" d="M208.496,282.859c6.32,7.422,13.223,14.325,20.645,20.645l16.536-16.536l-19.613-21.677
	L208.496,282.859z"/>
<path style="fill:#5D5360;" d="M7.256,504.744L7.256,504.744c-9.675-9.675-9.675-25.361,0-35.036l163.501-163.501
	c3.225-3.225,8.454-3.225,11.679,0l23.357,23.357c3.225,3.225,3.225,8.454,0,11.679L42.292,504.744
	C32.617,514.419,16.931,514.419,7.256,504.744z"/>
<path style="fill:#6F6571;" d="M205.793,329.564l-12.68-12.68L38.528,471.468c-9.675,9.675-9.675,25.361,0,35.036
	c0.251,0.25,0.546,0.42,0.804,0.657c1.02-0.745,2.039-1.497,2.96-2.418l163.501-163.501
	C209.019,338.017,209.019,332.789,205.793,329.564z"/>
<path style="fill:#9C969E;" d="M182.436,306.206c-3.225-3.225-8.454-3.225-11.678,0l-23.114,23.114l35.036,35.036l23.114-23.114
	c3.225-3.225,3.225-8.454,0-11.679L182.436,306.206z"/>
<path style="fill:#AEA8AF;" d="M205.793,329.564l-12.68-12.68l-28.954,28.954l18.52,18.52l23.114-23.114
	C209.019,338.017,209.019,332.789,205.793,329.564z"/>
<circle style="fill:#C9C6CA;" cx="346.84" cy="165.16" r="165.16"/>
<circle style="fill:#C0BCC1;" cx="346.84" cy="165.16" r="140.39"/>
<circle style="fill:#FFFFFF;" cx="346.84" cy="165.16" r="123.87"/>
<g>
	<path style="fill:#EDEBED;" d="M212.903,24.774H8.258C3.694,24.774,0,21.077,0,16.516s3.694-8.258,8.258-8.258h204.645
		c4.565,0,8.258,3.698,8.258,8.258S217.468,24.774,212.903,24.774z"/>
	<path style="fill:#EDEBED;" d="M177.032,66.065H49.548c-4.565,0-8.258-3.698-8.258-8.258s3.694-8.258,8.258-8.258h127.484
		c4.565,0,8.258,3.698,8.258,8.258S181.597,66.065,177.032,66.065z"/>
	<path style="fill:#EDEBED;" d="M156.903,107.355H90.839c-4.565,0-8.258-3.698-8.258-8.258c0-4.56,3.694-8.258,8.258-8.258h66.065
		c4.565,0,8.258,3.698,8.258,8.258C165.161,103.657,161.468,107.355,156.903,107.355z"/>
	<path style="fill:#EDEBED;" d="M384.732,199.335c-35.185-8.775-63.292-36.881-72.067-72.067
		c-3.489-13.99-3.773-27.518-1.628-40.228c1.138-6.746-6.085-11.874-12.073-8.565c-33.881,18.724-55.648,56.652-50.46,99.153
		c5.424,44.426,41.439,80.443,85.866,85.867c42.502,5.19,80.431-16.578,99.155-50.459c3.309-5.987-1.82-13.211-8.565-12.073
		C412.25,203.107,398.722,202.823,384.732,199.335z"/>
</g>
<g>
</g>
<g>
</g>
<g>
</g>
<g>
</g>
<g>
</g>
<g>
</g>
<g>
</g>
<g>
</g>
<g>
</g>
<g>
</g>
<g>
</g>
<g>
</g>
<g>
</g>
<g>
</g>
<g>
</g>
</svg>
